<svg width="15" height="15" fill="none" xmlns="http://www.w3.org/2000/svg"><g clip-path="url(#clip0_1_2097)"><path d="M3.784 9.165a2.49 2.49 0 01.222-.513A2.37 2.37 0 015.232 7.52a2.339 2.339 0 01-1.425-1.726c-.046-.14-.058-.292-.105-.444-.058-.245-.128-.49-.198-.723a1.393 1.393 0 00-.269-.501A1.633 1.633 0 00.948 4.02a1.63 1.63 0 00-.105 2.286c.443.49 1.844.735 2.883 1.19-1.051.455-2.475.723-2.918 1.201a1.633 1.633 0 00.105 2.298c.653.607 1.692.549 2.287-.105.129-.14.199-.315.269-.501a4.24 4.24 0 00.198-.724c.047-.151.07-.326.117-.501zm10.4-.42c-.443-.49-1.879-.747-2.918-1.201 1.05-.455 2.44-.7 2.883-1.19a1.631 1.631 0 00-.105-2.287 1.581 1.581 0 00-2.288.094c-.128.14-.198.315-.268.501-.093.234-.152.49-.198.723-.035.14-.059.292-.106.444A2.38 2.38 0 019.76 7.555c.533.216.969.618 1.226 1.132.093.175.175.338.221.513.047.175.082.35.129.513.059.245.129.49.199.723.058.175.14.362.268.502.595.653 1.634.7 2.288.105a1.656 1.656 0 00.093-2.298zm-3.315 3.08c-.14-.129-.315-.199-.502-.269a4.198 4.198 0 00-.724-.198c-.151-.047-.326-.082-.501-.128a2.522 2.522 0 01-.514-.222 2.37 2.37 0 01-1.132-1.225 2.337 2.337 0 01-1.728 1.423c-.14.047-.291.059-.443.105-.246.059-.49.129-.724.199-.175.058-.362.14-.502.268a1.63 1.63 0 00-.105 2.286c.596.653 1.634.7 2.288.105.49-.443.735-1.843 1.19-2.881.467 1.05.724 2.473 1.203 2.905a1.634 1.634 0 002.288-.105c.63-.63.583-1.669-.094-2.263zM4.624 3.53c.234.093.49.151.724.198.14.035.292.058.443.105a2.38 2.38 0 011.728 1.423 2.366 2.366 0 011.132-1.225 2.69 2.69 0 01.514-.221c.175-.047.35-.082.513-.129.246-.058.49-.128.724-.198.176-.058.362-.14.502-.268A1.63 1.63 0 0011.01.929a1.606 1.606 0 00-2.3-.104c-.49.443-.746 1.878-1.201 2.905-.456-1.05-.7-2.438-1.191-2.882A1.633 1.633 0 004.03.953a1.63 1.63 0 00.105 2.286c.128.152.292.233.49.292zm4.704 2.158a.86.86 0 00-1.202 0c-.233.233-.502 1.108-.642 1.598-.128-.478-.397-1.365-.642-1.598a.86.86 0 00-1.202 0 .859.859 0 000 1.201c.233.234 1.109.502 1.599.642-.478.128-1.366.396-1.6.641a.859.859 0 000 1.202.86.86 0 001.203 0c.234-.233.502-1.108.642-1.598.129.478.397 1.365.642 1.598a.86.86 0 001.202 0 .858.858 0 000-1.202c-.233-.233-1.109-.501-1.599-.641.479-.129 1.366-.397 1.6-.642a.858.858 0 000-1.201z" fill="#fff"/></g><defs><clipPath id="clip0_1_2097"><path fill="#fff" d="M0 0h15v15H0z"/></clipPath></defs></svg>